<svg width="24" height="24" viewBox="0 0 24 24" fill="none" xmlns="http://www.w3.org/2000/svg">
<g clip-path="url(#clip0_0_888)">
<path d="M23.9775 12.75H12.3105L4.06047 21C5.7446 22.4858 7.81189 23.4691 10.0272 23.8382C12.2426 24.2073 14.517 23.9473 16.5919 23.0878C18.6668 22.2283 20.4588 20.8037 21.7642 18.9762C23.0696 17.1486 23.8359 14.9915 23.976 12.75H23.9775ZM2.99997 19.938C1.51416 18.2538 0.530793 16.1865 0.161701 13.9712C-0.207391 11.7559 0.0526087 9.48143 0.91213 7.40654C1.77165 5.33166 3.19619 3.53962 5.02374 2.23425C6.85128 0.928875 9.00847 0.162561 11.25 0.0224609V11.6895L2.99997 19.9395V19.938ZM12.75 0.0224609V11.25H23.9775C23.7946 8.33214 22.5531 5.58139 20.4858 3.51413C18.4185 1.44687 15.6678 0.205284 12.75 0.0224609Z" fill="#282828"/>
</g>
<defs>
<clipPath id="clip0_0_888">
<rect width="24" height="24" fill="white"/>
</clipPath>
</defs>
</svg>
