<svg width="125" height="44" viewBox="0 0 125 44" fill="none" xmlns="http://www.w3.org/2000/svg">
<g clip-path="url(#clip0_0_897)">
<path d="M124.491 8C124.588 8 124.666 8.07814 124.666 8.17453V11.0735C124.666 11.1699 124.588 11.2481 124.491 11.2481H116.428C116.369 11.2481 116.31 11.2216 116.266 11.1821C116.256 11.1728 116.246 11.1638 116.239 11.1562C116.229 11.1469 116.219 11.1374 116.209 11.1291C113.017 8.65587 109.155 8.45312 107.831 8.11527C107.742 8.09275 107.76 8 107.851 8H124.491Z" fill="#DF2446"/>
<path d="M121.382 22C121.382 29.732 115.114 36 107.382 36C99.6501 36 93.3821 29.732 93.3821 22C93.3821 14.268 99.6501 8 107.382 8C115.114 8 121.382 14.268 121.382 22ZM96.9521 22C96.9521 27.7603 101.622 32.43 107.382 32.43C113.142 32.43 117.812 27.7603 117.812 22C117.812 16.2397 113.142 11.57 107.382 11.57C101.622 11.57 96.9521 16.2397 96.9521 22Z" fill="#282828"/>
<path d="M82.2628 35.6949C82.07 35.6949 81.9138 35.5386 81.9138 35.3458V8.66157C81.9138 8.46879 82.07 8.3125 82.2628 8.3125H85.4765C85.6692 8.3125 85.8255 8.46879 85.8255 8.66157V35.3458C85.8255 35.5386 85.6692 35.6949 85.4765 35.6949H82.2628Z" fill="#282828"/>
<path d="M58.7694 35.6949C58.631 35.6949 58.5057 35.6131 58.4499 35.4864L46.7089 8.80216C46.6074 8.57145 46.7763 8.3125 47.0284 8.3125H49.5773C50.2704 8.3125 50.8978 8.72264 51.1759 9.3575L61.5742 33.0934C61.6752 33.3241 61.5062 33.5825 61.2544 33.5825H59.8987C59.6465 33.5825 59.4775 33.3233 59.5793 33.0926L70.0525 9.35335C70.3316 8.72071 70.9578 8.3125 71.6493 8.3125H73.8892C74.141 8.3125 74.31 8.57111 74.2089 8.80177L62.5059 35.486C62.4503 35.6129 62.3248 35.6949 62.1862 35.6949H58.7694Z" fill="#282828"/>
<path d="M35.4949 35.6949C35.3021 35.6949 35.1458 35.5386 35.1458 35.3458V8.66157C35.1458 8.46879 35.3021 8.3125 35.4949 8.3125H38.7085C38.9013 8.3125 39.0575 8.46879 39.0575 8.66157V35.3458C39.0575 35.5386 38.9013 35.6949 38.7085 35.6949H35.4949Z" fill="#282828"/>
<path d="M12.0905 35.6949C11.9521 35.6949 11.8268 35.6131 11.771 35.4864L0.029949 8.80215C-0.0715594 8.57145 0.0974104 8.3125 0.349456 8.3125H2.89834C3.59145 8.3125 4.21888 8.72264 4.497 9.3575L14.8952 33.0934C14.9963 33.3241 14.8273 33.5825 14.5755 33.5825H13.2197C12.9675 33.5825 12.7986 33.3233 12.9004 33.0926L23.3735 9.35335C23.6526 8.72071 24.2789 8.3125 24.9704 8.3125H27.2103C27.4621 8.3125 27.6311 8.57111 27.5299 8.80177L15.827 35.486C15.7713 35.6129 15.6459 35.6949 15.5073 35.6949H12.0905Z" fill="#282828"/>
</g>
<defs>
<clipPath id="clip0_0_897">
<rect width="125" height="44" fill="white"/>
</clipPath>
</defs>
</svg>
