<svg width="199.979980" height="199.992432" viewBox="0 0 199.98 199.992" fill="none" xmlns="http://www.w3.org/2000/svg" xmlns:xlink="http://www.w3.org/1999/xlink">
	<desc>
			Created with Pixso.
	</desc>
	<defs/>
	<path id="Vector" d="M125.82 10.87C122.46 7.43 118.44 4.69 114 2.83C109.57 0.96 104.8 0 99.99 0C95.17 0 90.41 0.96 85.97 2.83C81.53 4.69 77.51 7.43 74.15 10.87L66.37 18.85L55.25 18.71C50.43 18.65 45.65 19.56 41.19 21.38C36.73 23.19 32.68 25.88 29.28 29.29C25.87 32.69 23.18 36.75 21.36 41.21C19.55 45.67 18.64 50.44 18.7 55.26L18.82 66.38L10.87 74.16C7.43 77.52 4.69 81.54 2.83 85.98C0.96 90.42 0 95.18 0 100C0 104.81 0.96 109.58 2.83 114.01C4.69 118.45 7.43 122.47 10.87 125.84L18.83 133.61L18.7 144.74C18.64 149.55 19.55 154.33 21.36 158.79C23.18 163.25 25.87 167.3 29.28 170.71C32.68 174.11 36.73 176.8 41.19 178.62C45.65 180.44 50.43 181.34 55.25 181.29L66.37 181.16L74.15 189.11C77.51 192.55 81.53 195.29 85.97 197.16C90.41 199.03 95.17 199.99 99.99 199.99C104.8 199.99 109.57 199.03 114 197.16C118.44 195.29 122.46 192.55 125.82 189.11L133.6 181.15L144.72 181.29C149.54 181.34 154.32 180.44 158.78 178.62C163.24 176.8 167.29 174.11 170.69 170.71C174.1 167.3 176.79 163.25 178.61 158.79C180.42 154.33 181.33 149.55 181.27 144.74L181.15 133.61L189.1 125.84C192.54 122.47 195.28 118.45 197.15 114.01C199.01 109.58 199.98 104.81 199.98 100C199.98 95.18 199.01 90.42 197.15 85.98C195.28 81.54 192.54 77.52 189.1 74.16L181.14 66.38L181.27 55.26C181.33 50.44 180.42 45.67 178.61 41.21C176.79 36.75 174.1 32.69 170.69 29.29C167.29 25.88 163.24 23.19 158.78 21.38C154.32 19.56 149.54 18.65 144.72 18.71L133.6 18.83L125.82 10.88L125.82 10.87ZM129.41 85.67L91.91 123.17C91.33 123.76 90.64 124.22 89.88 124.53C89.12 124.85 88.31 125.01 87.49 125.01C86.66 125.01 85.85 124.85 85.09 124.53C84.33 124.22 83.64 123.76 83.06 123.17L64.31 104.42C63.73 103.84 63.27 103.15 62.95 102.39C62.64 101.63 62.48 100.82 62.48 100C62.48 99.18 62.64 98.36 62.95 97.6C63.27 96.84 63.73 96.15 64.31 95.57C64.89 94.99 65.58 94.53 66.34 94.22C67.1 93.9 67.91 93.74 68.74 93.74C69.56 93.74 70.37 93.9 71.13 94.22C71.89 94.53 72.58 94.99 73.16 95.57L87.49 109.91L120.56 76.82C121.73 75.65 123.33 74.99 124.99 74.99C126.65 74.99 128.24 75.65 129.41 76.82C130.58 78 131.24 79.59 131.24 81.25C131.24 82.91 130.58 84.5 129.41 85.67Z" fill="#000000" fill-opacity="1.000000" fill-rule="nonzero"/>
</svg>
